<?xml version="1.0" encoding="UTF-8" standalone="no"?>
<!-- Created with Inkscape (http://www.inkscape.org/) -->
<svg
   xmlns:dc="http://purl.org/dc/elements/1.1/"
   xmlns:cc="http://creativecommons.org/ns#"
   xmlns:rdf="http://www.w3.org/1999/02/22-rdf-syntax-ns#"
   xmlns:svg="http://www.w3.org/2000/svg"
   xmlns="http://www.w3.org/2000/svg"
   xmlns:sodipodi="http://sodipodi.sourceforge.net/DTD/sodipodi-0.dtd"
   xmlns:inkscape="http://www.inkscape.org/namespaces/inkscape"
   width="210mm"
   height="297mm"
   id="svg2695"
   sodipodi:version="0.32"
   inkscape:version="0.46"
   sodipodi:docname="party_invitation.svg"
   inkscape:output_extension="org.inkscape.output.svg.inkscape">
  <defs
     id="defs3">
    <inkscape:perspective
       sodipodi:type="inkscape:persp3d"
       inkscape:vp_x="0 : 526.18109 : 1"
       inkscape:vp_y="0 : 1000 : 0"
       inkscape:vp_z="744.09448 : 526.18109 : 1"
       inkscape:persp3d-origin="372.04724 : 350.78739 : 1"
       id="perspective2701" />
  </defs>
  <sodipodi:namedview
     inkscape:document-units="mm"
     id="base"
     pagecolor="#ffffff"
     bordercolor="#666666"
     borderopacity="1.0"
     inkscape:pageopacity="0.0"
     inkscape:pageshadow="2"
     inkscape:zoom="0.7"
     inkscape:cx="318.16953"
     inkscape:cy="536.93135"
     inkscape:current-layer="layer1"
     showgrid="false"
     inkscape:window-width="1177"
     inkscape:window-height="963"
     inkscape:window-x="56"
     inkscape:window-y="56" />
  <metadata
     id="metadata4">
    <rdf:RDF>
      <cc:Work
         rdf:about="">
        <dc:format>image/svg+xml</dc:format>
        <dc:type
           rdf:resource="http://purl.org/dc/dcmitype/StillImage" />
      </cc:Work>
    </rdf:RDF>
  </metadata>
  <g
     inkscape:label="Layer 1"
     inkscape:groupmode="layer"
     id="layer1">
    <text
       xml:space="preserve"
       style="font-size:67.19135284px;font-style:normal;font-variant:normal;font-weight:normal;font-stretch:normal;text-align:center;line-height:125%;writing-mode:lr-tb;text-anchor:middle;fill:#feff41;fill-opacity:1;stroke:none;stroke-width:1px;stroke-linecap:butt;stroke-linejoin:miter;stroke-opacity:1;font-family:Snap ITC;-inkscape-font-specification:Snap ITC"
       x="320.19885"
       y="370.48215"
       id="text3537"
       sodipodi:linespacing="125%"
       transform="scale(1.1599341,0.862118)"><tspan
         sodipodi:role="line"
         id="tspan3539"
         x="320.19885"
         y="370.48215">HAPPY</tspan><tspan
         sodipodi:role="line"
         x="320.19885"
         y="454.47134"
         id="tspan3541">BIRTHDAY</tspan><tspan
         sodipodi:role="line"
         x="320.19885"
         y="538.46051"
         id="tspan3543">OLIVER!</tspan></text>
    <text
       xml:space="preserve"
       style="font-size:67.19135284px;font-style:normal;font-variant:normal;font-weight:normal;font-stretch:normal;text-align:center;line-height:125%;writing-mode:lr-tb;text-anchor:middle;fill:#000080;fill-opacity:1;stroke:none;stroke-width:1px;stroke-linecap:butt;stroke-linejoin:miter;stroke-opacity:1;font-family:Snap ITC;-inkscape-font-specification:Snap ITC"
       x="313.19406"
       y="365.88925"
       id="text2535"
       sodipodi:linespacing="125%"
       transform="scale(1.1599341,0.862118)"><tspan
         sodipodi:role="line"
         id="tspan2537"
         x="313.19406"
         y="365.88925">HAPPY</tspan><tspan
         sodipodi:role="line"
         x="313.19406"
         y="449.87845"
         id="tspan2539">BIRTHDAY</tspan><tspan
         sodipodi:role="line"
         x="313.19406"
         y="533.86761"
         id="tspan2541">OLIVER!</tspan></text>
    <text
       xml:space="preserve"
       style="font-size:18.17270279px;font-style:normal;font-variant:normal;font-weight:bold;font-stretch:normal;text-align:start;line-height:125%;writing-mode:lr-tb;text-anchor:start;fill:#000080;fill-opacity:1;stroke:none;stroke-width:1px;stroke-linecap:butt;stroke-linejoin:miter;stroke-opacity:1;font-family:Tahoma;-inkscape-font-specification:Tahoma Bold"
       x="61.286739"
       y="648.90997"
       id="text2543"
       transform="scale(1.1352284,0.88088)"
       sodipodi:linespacing="125%"><tspan
         sodipodi:role="line"
         id="tspan2545"
         x="61.286739"
         y="648.90997">JOIN US ON</tspan><tspan
         sodipodi:role="line"
         x="61.286739"
         y="671.62585"
         id="tspan2547">MONDAY AUGUST, 23</tspan><tspan
         sodipodi:role="line"
         x="61.286739"
         y="694.34174"
         id="tspan2549">AT 2:30 PM. </tspan><tspan
         sodipodi:role="line"
         x="61.286739"
         y="717.05762"
         id="tspan2551">FOR THE CELEBRATION</tspan><tspan
         sodipodi:role="line"
         x="61.286739"
         y="739.7735"
         id="tspan2579">OF OUR</tspan><tspan
         sodipodi:role="line"
         x="61.286739"
         y="762.48938"
         id="tspan2553">OLIVER’S FIRST</tspan><tspan
         sodipodi:role="line"
         x="61.286739"
         y="785.20526"
         id="tspan2581">BIRTHDAY.</tspan><tspan
         sodipodi:role="line"
         x="61.286739"
         y="807.92114"
         id="tspan2561">  </tspan><tspan
         sodipodi:role="line"
         x="61.286739"
         y="830.63702"
         id="tspan2557">THERE WILL BE</tspan><tspan
         sodipodi:role="line"
         x="61.286739"
         y="853.35291"
         id="tspan2565">TREATS AND GAMES</tspan><tspan
         sodipodi:role="line"
         x="61.286739"
         y="876.06879"
         id="tspan2567">FOR ALL, SO BRING</tspan><tspan
         sodipodi:role="line"
         x="61.286739"
         y="898.78461"
         id="tspan2577">THE WHOLE FAMILY. </tspan><tspan
         sodipodi:role="line"
         x="61.286739"
         y="921.50049"
         id="tspan2559" /></text>
    <rect
       style="opacity:1;fill:#4c9eff;fill-opacity:1;fill-rule:nonzero;stroke:none;stroke-width:3.00333905000000010;stroke-linecap:square;stroke-linejoin:miter;marker:none;marker-start:none;marker-mid:none;marker-end:none;stroke-miterlimit:4;stroke-dasharray:none;stroke-dashoffset:0;stroke-opacity:1;visibility:visible;display:inline;overflow:visible;enable-background:accumulate"
       id="rect2765"
       width="694.71094"
       height="116.13952"
       x="24.787386"
       y="865.72095" />
    <g
       id="g2652"
       transform="translate(303.41213,124.49164)">
      <path
         style="fill:#e6b100;fill-rule:evenodd;stroke:#000000;stroke-width:3.01412239pt"
         id="path850"
         d="M 369.49034,779.12465 C 369.49034,805.67181 307.26841,827.21736 230.6021,827.21736 C 153.93578,827.21736 91.71384,805.67181 91.71384,779.12465 C 91.71384,752.57746 153.93578,731.03193 230.6021,731.03193 C 307.26841,731.03193 369.49034,752.57746 369.49034,779.12465 z" />
      <path
         style="fill:#441b13;fill-rule:evenodd;stroke:#000000;stroke-width:2.47461376pt"
         sodipodi:nodetypes="cccccccc"
         id="path829"
         d="M 230.60206,639.30373 C 164.09825,639.30373 110.12414,658.60143 110.12414,682.37896 C 110.12414,683.48217 110.58223,766.34452 110.58223,766.88532 C 110.58223,790.66283 164.55634,809.96056 231.06015,809.96056 C 297.56397,809.96056 351.53808,790.66283 351.53808,766.88532 L 351.07997,684.02305 C 351.07997,684.02305 351.07997,682.94137 351.07997,682.37896 C 351.07997,658.60143 297.10586,639.30373 230.60206,639.30373 z" />
      <path
         style="fill:#954a3d;fill-rule:evenodd;stroke:#000000;stroke-width:2.79910088pt"
         sodipodi:nodetypes="ccccccccccccccccccc"
         id="path833"
         d="M 106.45941,673.0627 C 105.47527,681.90498 97.047934,705.83535 114.04761,702.09356 C 131.01508,703.42837 113.7836,731.24363 131.60082,732.33546 C 146.07877,733.43451 133.87796,710.42692 147.01841,717.40302 C 160.41659,720.09061 158.69095,733.30768 160.51164,742.24657 C 169.36336,749.32784 172.23755,736.92054 169.52494,731.19285 C 176.17091,721.55255 194.67439,725.65497 204.28587,729.25051 C 209.64091,739.01285 213.43232,759.15437 230.33935,753.6929 C 241.60788,750.27274 246.54134,729.71171 258.01292,727.87923 C 268.33845,727.98112 269.09155,752.89394 280.52777,741.61179 C 283.64563,732.4134 300.32811,715.83904 310.54288,726.90265 C 320.83311,736.36498 336.56499,729.25747 332.73999,713.00909 C 338.25604,703.39301 354.34725,716.92191 354.38084,690.46671 C 356.85656,677.98181 354.82947,666.41126 337.64926,656.35091 C 327.25355,651.37546 311.83715,648.99909 296.72229,642.80877 C 280.33393,637.05092 264.95211,633.95183 247.67164,631.53016 C 217.51932,631.01672 192.43443,634.57515 162.81417,640.20922 C 148.82951,641.87893 138.87708,650.60316 126.12386,654.89591 C 118.09123,658.58877 109.82991,666.01979 106.45941,673.0627 z" />
      <path
         style="fill:#ffffff;fill-opacity:0.8;fill-rule:evenodd;stroke:none;stroke-width:1pt;stroke-linecap:butt;stroke-linejoin:miter;stroke-opacity:1"
         id="path835"
         d="M 113.78887,685.58969 C 113.78887,696.54822 124.6839,694.68576 131.19633,700.62207 C 137.56054,703.52268 141.85306,705.63287 149.51996,705.63287 C 160.38988,705.63287 148.13564,702.07897 144.93905,700.62207 C 137.39638,700.62207 125.69923,696.64077 125.69923,689.76535 C 121.17903,685.64502 120.42952,685.58969 113.78887,685.58969 z" />
      <path
         style="fill:#ffffff;fill-opacity:0.8;fill-rule:evenodd;stroke:none;stroke-width:1pt;stroke-linecap:butt;stroke-linejoin:miter;stroke-opacity:1"
         id="path836"
         d="M 177.00542,708.9734 C 179.86749,714.19116 193.6043,716.48959 205.40706,716.48959 C 211.65904,719.33904 238.38961,721.69677 238.38961,713.14906 C 238.38961,706.72472 221.47994,711.4788 218.23361,711.4788 C 212.46941,711.4788 188.87952,703.99566 185.25106,707.30313 C 181.72213,707.30313 180.89244,707.55614 177.00542,708.9734 z" />
      <path
         style="fill:#ffffff;fill-opacity:0.8;fill-rule:evenodd;stroke:none;stroke-width:1pt;stroke-linecap:butt;stroke-linejoin:miter;stroke-opacity:1"
         id="path837"
         d="M 257.62943,711.4788 C 264.2912,717.55124 286.73021,713.66555 297.02525,708.9734 C 301.09078,706.50281 316.26507,704.93186 316.26507,699.78694 C 319.84144,696.52696 303.06641,698.45588 300.68998,700.62207 C 289.16195,700.62207 272.77731,703.12747 259.46179,703.12747 C 253.89728,703.12747 256.67114,709.29501 257.62943,711.4788 z" />
      <path
         style="fill:#ffffff;fill-opacity:0.8;fill-rule:evenodd;stroke:none;stroke-width:0.9364027pt"
         id="path838"
         d="M 334.22793,700.16477 C 337.27973,696.83162 344.40059,689.07202 347.55185,682.18854 C 347.55185,679.29762 351.98637,669.34837 346.76809,669.34837 C 342.34728,669.34837 337.36297,675.78012 337.36297,680.47652 C 335.30033,682.72931 337.31143,693.31668 332.66042,693.31668 C 332.66042,700.07716 327.46557,700.16477 334.22793,700.16477 z" />
      <path
         style="fill:#ffffff;fill-opacity:0.8;fill-rule:evenodd;stroke:none;stroke-width:1pt;stroke-linecap:butt;stroke-linejoin:miter;stroke-opacity:1"
         id="path839"
         d="M 315.34889,653.85465 C 307.95497,653.85465 300.8462,650.16776 292.44433,646.33845 C 282.34863,644.0378 272.30796,639.65739 262.21034,639.65739 C 262.21034,651.66064 281.1248,659.01374 292.44433,653.85465 C 300.91277,653.85465 306.06955,658.08387 315.34889,653.85465 z" />
      <path
         style="fill:#ffffff;fill-opacity:0.8;fill-rule:evenodd;stroke:none;stroke-width:1pt"
         id="path840"
         d="M 237.07431,639.55246 C 234.38307,638.75805 219.83223,637.71202 211.02438,638.92932 C 205.37729,639.70978 199.82659,641.32159 193.95096,642.13363 C 185.03151,643.36635 184.34469,648.52933 193.86918,647.213 C 203.2969,645.91004 212.54715,647.16563 222.36191,645.80918 C 227.22127,649.07232 235.11339,642.64361 237.07431,639.55246 z" />
      <path
         style="fill:#ffffff;fill-opacity:0.8;fill-rule:evenodd;stroke:none;stroke-width:1pt;stroke-linecap:butt;stroke-linejoin:miter;stroke-opacity:1"
         id="path841"
         d="M 161.43033,651.34925 C 157.36184,651.34925 147.03622,656.36005 140.35814,656.36005 C 135.76604,656.36005 120.20214,659.85455 120.20214,663.87624 C 114.30796,669.249 136.60342,660.53571 144.93905,660.53571 C 149.76776,660.53571 158.68178,660.76158 158.68178,656.36005 C 162.08469,656.36005 161.43033,654.05925 161.43033,651.34925 z" />
      <path
         style="fill:#ffffff;fill-opacity:0.8;fill-rule:evenodd;stroke:none;stroke-width:1pt;stroke-linecap:butt;stroke-linejoin:miter;stroke-opacity:1"
         id="path842"
         d="M 132.11251,679.74376 C 137.62366,679.74376 149.23289,681.41402 157.7656,681.41402 C 162.10532,677.45821 173.34069,682.96124 173.34069,674.73296 C 173.34069,673.00099 153.92782,671.39243 151.35233,671.39243 C 147.81087,671.39243 138.38005,673.19554 132.11251,679.74376 z" />
      <path
         style="fill:#ffffff;fill-opacity:0.8;fill-rule:evenodd;stroke:none;stroke-width:1pt;stroke-linecap:butt;stroke-linejoin:miter;stroke-opacity:1"
         id="path843"
         d="M 166.92742,698.11668 C 173.90839,691.75327 179.47913,686.67534 186.16724,680.57889 C 189.73629,677.32558 199.48043,681.19223 189.83197,685.58969 C 189.83197,690.7079 185.12379,694.77615 179.75397,694.77615 C 175.25722,698.87509 173.75569,698.11668 166.92742,698.11668 z" />
      <path
         style="fill:#ffffff;fill-opacity:0.8;fill-rule:evenodd;stroke:none;stroke-width:1pt;stroke-linecap:butt;stroke-linejoin:miter;stroke-opacity:1"
         id="path844"
         d="M 177.00542,654.68978 C 177.00542,659.49173 198.99379,660.91547 198.99379,665.5465 C 205.77406,665.5465 202.54525,656.36005 196.24524,656.36005 C 188.23233,656.36005 184.84731,653.26015 177.00542,654.68978 z" />
      <path
         style="fill:#ffffff;fill-opacity:0.8;fill-rule:evenodd;stroke:none;stroke-width:1pt;stroke-linecap:butt;stroke-linejoin:miter;stroke-opacity:1"
         id="path845"
         d="M 247.55143,646.33845 C 242.75664,650.70907 242.42191,661.37084 235.64106,661.37084 C 235.64106,671.11893 247.55143,666.12037 247.55143,659.70058 C 250.02854,657.4426 252.13234,648.93276 247.55143,646.33845 z" />
      <path
         style="fill:#ffffff;fill-opacity:0.8;fill-rule:evenodd;stroke:none;stroke-width:1pt;stroke-linecap:butt;stroke-linejoin:miter;stroke-opacity:1"
         id="path847"
         d="M 320.84599,660.53571 C 316.93071,660.53571 290.34376,664.36522 287.86344,668.88703 C 287.86344,682.14416 306.47346,670.5573 315.34889,670.5573 C 320.52761,670.5573 321.68305,665.11385 320.84599,660.53571 z" />
      <path
         style="fill:#ffffff;fill-opacity:0.8;fill-rule:evenodd;stroke:none;stroke-width:1pt;stroke-linecap:butt;stroke-linejoin:miter;stroke-opacity:1"
         id="path848"
         d="M 320.84599,688.09509 C 314.91631,682.68997 304.4949,683.91942 296.10906,683.91942 C 289.85911,683.91942 284.86186,689.76535 293.36052,689.76535 C 300.62501,689.76535 306.34946,691.43561 314.4327,691.43561 C 318.22055,691.43561 315.78813,691.78342 320.84599,688.09509 z" />
      <g
         transform="matrix(7.2371928,0,-0.9734928,5.8083057,-616.10743,404.2884)"
         id="g862">
        <path
           style="fill:#0075ff;fill-rule:evenodd;stroke:#000000;stroke-width:0.71048145pt;stroke-linejoin:round"
           sodipodi:nodetypes="ccccccccc"
           id="path857"
           d="M 116.37367,29.656913 C 117.42503,31.49486 119.2027,30.519711 121.13173,30.663882 C 123.08924,30.829302 123.94552,29.5545 125.13887,29.160544 C 128.6147,31.261413 125.53568,34.117738 126.21844,37.735531 C 126.26559,40.374521 126.6944,44.609261 127.09768,47.409798 C 127.26167,49.70491 121.17006,49.881472 120.01122,48.859931 C 119.05396,48.275919 118.30976,46.408796 118.909,44.245653 C 119.07057,41.580958 118.23024,40.192608 117.73904,37.567818 C 117.87469,34.343844 114.35346,33.400097 116.37367,29.656913 z" />
        <path
           style="fill:#00ffff;fill-rule:evenodd;stroke:#000000;stroke-width:0.71048145pt;stroke-linejoin:round"
           sodipodi:nodetypes="ccccccccc"
           id="path858"
           d="M 116.36976,29.313863 C 117.14648,29.52793 118.7755,29.725333 119.55824,29.401739 C 120.43406,29.401739 121.6815,29.667347 122.32159,29.138111 C 122.82249,29.138111 124.23532,28.962359 124.87238,28.962359 C 125.67597,28.962359 124.44725,28.688447 124.44725,29.401739 C 123.85761,29.401739 123.37622,29.847898 122.95929,30.192624 C 122.59627,30.792926 121.54733,30.807757 120.83363,30.807757 C 120.00194,30.807757 119.02432,30.719881 118.17656,30.719881 C 117.3925,30.719881 116.68861,30.583657 116.36976,29.313863 z" />
        <path
           style="fill:#ffa800;fill-rule:evenodd;stroke:#000000;stroke-width:0.71048145pt"
           sodipodi:nodetypes="ccc"
           id="path860"
           d="M 118.28285,13.759789 C 119.77081,15.429436 127.95457,26.589703 119.77081,27.204836 C 108.7174,28.522978 119.2394,17.626339 118.28285,13.759789 z" />
        <path
           style="fill:#ffff00;fill-opacity:1;fill-rule:evenodd;stroke:none;stroke-width:1pt;stroke-linecap:butt;stroke-linejoin:miter;stroke-opacity:1"
           sodipodi:nodetypes="ccc"
           id="path861"
           d="M 119.33474,18.318327 C 120.11204,19.360168 123.85577,26.499805 119.58062,26.88364 C 113.80638,27.706146 119.83443,20.731011 119.33474,18.318327 z" />
        <path
           style="fill:none;fill-opacity:0.75;fill-rule:evenodd;stroke:#000000;stroke-width:0.71048145pt"
           sodipodi:nodetypes="ccc"
           id="path859"
           d="M 120.93991,30.2805 C 119.32455,29.308344 118.66786,27.613622 119.20631,26.698105 C 119.62285,25.699877 119.80142,23.445732 119.80142,22.040847" />
      </g>
      <path
         style="fill:#ffffff;fill-opacity:0.3;fill-rule:evenodd;stroke:none;stroke-width:1pt;stroke-linecap:butt;stroke-linejoin:miter;stroke-opacity:1"
         sodipodi:nodetypes="cccccc"
         id="path901"
         d="M 211.71124,602.37127 C 207.8912,607.86185 215.88429,611.32832 216.84843,616.32032 C 218.98258,622.5925 219.83072,631.49233 220.22863,638.02305 C 218.23435,642.4887 223.5481,653.16555 225.62187,645.40875 C 226.12087,635.90892 223.56962,622.25035 221.89942,612.95706 C 220.44035,607.98654 217.40375,603.2064 211.71124,602.37127 z" />
      <path
         style="fill:#ffffff;fill-opacity:0.3;fill-rule:evenodd;stroke:none;stroke-width:1pt;stroke-linecap:butt;stroke-linejoin:miter;stroke-opacity:1"
         sodipodi:nodetypes="cccccc"
         id="path902"
         d="M 300.48592,630.94585 C 296.66588,636.43642 304.65896,639.90289 305.62311,644.89489 C 307.75726,651.16708 308.60539,660.0669 309.00331,666.59763 C 307.00903,671.06327 312.32278,681.74012 314.39655,673.98333 C 314.89555,664.4835 312.3443,650.82492 310.67409,641.53163 C 309.21502,636.56112 306.17844,631.78098 300.48592,630.94585 z" />
      <path
         style="fill:#ffffff;fill-opacity:0.3;fill-rule:evenodd;stroke:none;stroke-width:1pt;stroke-linecap:butt;stroke-linejoin:miter;stroke-opacity:1"
         sodipodi:nodetypes="cccccc"
         id="path904"
         d="M 114.89936,631.84092 C 111.07932,637.3315 119.07242,640.79796 120.03655,645.78996 C 122.1707,652.06215 123.01884,660.96197 123.41675,667.4927 C 121.42247,671.95834 126.73622,682.63519 128.80999,674.8784 C 129.309,665.37857 126.75774,651.71999 125.08754,642.4267 C 123.62847,637.45619 120.59187,632.67605 114.89936,631.84092 z" />
      <path
         style="fill:#ffffff;fill-opacity:0.3;fill-rule:evenodd;stroke:none;stroke-width:1pt;stroke-linecap:butt;stroke-linejoin:miter;stroke-opacity:1"
         sodipodi:nodetypes="cccccc"
         id="path905"
         d="M 174.3067,656.90296 C 170.48666,662.39354 178.47975,665.86001 179.44389,670.85201 C 181.57804,677.1242 182.42617,686.02402 182.82408,692.55474 C 180.82981,697.02039 186.14356,707.69724 188.21733,699.94044 C 188.71633,690.44062 186.16508,676.78204 184.49487,667.48875 C 183.03581,662.51823 179.99921,657.73809 174.3067,656.90296 z" />
      <path
         style="fill:#ffffff;fill-opacity:0.8;fill-rule:evenodd;stroke:none;stroke-width:1pt;stroke-linecap:butt;stroke-linejoin:miter;stroke-opacity:1"
         sodipodi:nodetypes="ccccc"
         id="path906"
         d="M 223.00354,751.84846 C 227.3676,755.40383 239.20554,746.29922 239.20554,744.24034 C 239.20554,741.2949 241.16942,740.03369 241.16942,737.07976 C 237.92647,734.12369 234.09002,742.89773 230.36808,742.89773 C 228.08916,744.97505 221.81532,746.43295 223.00354,751.84846 z" />
      <path
         style="fill:#ffffff;fill-opacity:0.8;fill-rule:evenodd;stroke:none;stroke-width:1pt;stroke-linecap:butt;stroke-linejoin:miter;stroke-opacity:1"
         sodipodi:nodetypes="ccccc"
         id="path907"
         d="M 275.5373,743.34527 C 280.33391,740.86622 282.97292,734.7125 285.3567,730.36671 C 288.37215,727.61802 284.91035,728.12903 281.9199,728.12903 C 278.72552,731.04083 275.56081,730.79282 272.59148,733.49947 C 272.59148,737.19293 271.56882,741.89831 275.5373,743.34527 z" />
      <path
         style="fill:#ffffff;fill-opacity:0.8;fill-rule:evenodd;stroke:none;stroke-width:1pt;stroke-linecap:butt;stroke-linejoin:miter;stroke-opacity:1"
         sodipodi:nodetypes="ccccc"
         id="path909"
         d="M 319.72457,729.47164 C 322.53682,728.61715 328.56202,728.10233 328.56202,724.54874 C 330.84018,722.47212 331.01688,719.35545 331.01688,716.49308 C 328.50751,711.91829 323.69518,715.55896 320.70651,718.28323 C 318.88617,721.60183 317.7891,728.58951 319.72457,729.47164 z" />
      <path
         style="fill:#ffffff;fill-opacity:0.8;fill-rule:evenodd;stroke:none;stroke-width:1pt;stroke-linecap:butt;stroke-linejoin:miter;stroke-opacity:1"
         sodipodi:nodetypes="ccccc"
         id="path929"
         d="M 344.27306,706.64728 C 348.23166,705.03031 349.48985,702.47264 350.39465,698.18475 C 351.51053,694.64957 352.07571,693.40507 348.57275,695.76164 C 345.06778,697.76082 340.96807,700.08837 341.22267,704.16472 C 341.32025,705.95023 342.00404,707.41621 344.27306,706.64728 z" />
      <path
         style="fill:#ffffff;fill-opacity:0.8;fill-rule:evenodd;stroke:none;stroke-width:1pt;stroke-linecap:butt;stroke-linejoin:miter;stroke-opacity:1"
         sodipodi:nodetypes="ccc"
         id="path911"
         d="M 162.12329,742.89773 C 165.27991,743.74477 170.38756,741.03264 168.99687,734.84208 C 163.62518,734.84208 162.12329,738.40452 162.12329,742.89773 z" />
      <path
         style="fill:#ffffff;fill-opacity:0.8;fill-rule:evenodd;stroke:none;stroke-width:1pt;stroke-linecap:butt;stroke-linejoin:miter;stroke-opacity:1"
         sodipodi:nodetypes="ccccc"
         id="path912"
         d="M 127.75541,728.57657 C 131.195,731.93436 134.31728,732.88853 137.57481,726.78642 C 137.57481,723.44664 138.17756,721.41598 134.13802,721.41598 C 130.84995,721.41598 128.00248,723.20325 126.77347,725.44381 C 126.77347,726.83654 126.93086,726.69754 127.75541,728.57657 z" />
      <path
         style="fill:#ffffff;fill-opacity:0.8;fill-rule:evenodd;stroke:none;stroke-width:1pt;stroke-linecap:butt;stroke-linejoin:miter;stroke-opacity:1"
         sodipodi:nodetypes="ccc"
         id="path913"
         d="M 105.17081,696.35394 C 108.74456,700.38176 111.06244,704.35135 111.06244,695.9064 C 110.72314,691.56929 105.17081,691.73244 105.17081,696.35394 z" />
      <path
         style="fill:#954a3d;fill-rule:evenodd;stroke:#000000;stroke-width:2.79910088pt"
         sodipodi:nodetypes="cccccccccccccccccc"
         id="path937"
         d="M 109.58954,734.39453 C 124.85154,733.71668 128.65247,744.68411 142.71008,748.8391 C 157.59756,750.63801 173.45745,756.76678 186.89527,759.48822 C 201.48366,762.26017 219.72279,764.03663 235.82553,763.2452 C 255.00526,760.99641 288.07284,756.02789 301.05003,751.11426 C 315.99017,746.17403 339.40506,734.53682 349.87023,726.5216 C 358.37305,726.33624 353.3974,739.0903 350.37072,745.16319 C 350.718,753.14458 347.29299,759.85692 336.85952,757.17219 C 324.85051,754.23394 328.03403,775.30508 315.09389,767.92523 C 303.73275,761.19896 298.71934,772.79968 298.55402,781.11983 C 287.3498,785.67748 272.37172,794.86404 260.80212,786.24621 C 254.79845,776.1375 233.35651,770.58481 230.74636,785.65951 C 223.03531,796.50351 206.38654,793.40362 201.86885,782.38104 C 192.1773,777.36914 180.39581,779.66162 170.20202,776.10665 C 164.55187,781.97273 149.36359,787.15612 149.10986,775.06078 C 145.32453,762.98748 120.5192,751.17759 115.43556,765.55227 C 100.67413,767.12896 103.56229,754.35215 104.92679,742.16801 C 104.3265,738.43765 105.0915,735.33066 109.58954,734.39453 z" />
      <path
         style="fill:#ffffff;fill-opacity:0.8;fill-rule:evenodd;stroke:none;stroke-width:1pt;stroke-linecap:butt;stroke-linejoin:miter;stroke-opacity:1"
         sodipodi:nodetypes="ccc"
         id="path938"
         d="M 106.48268,759.16447 C 109.18435,765.36045 112.32977,765.42661 119.99105,759.16447 C 119.99105,754.01168 110.45293,763.36578 106.48268,759.16447 z" />
      <path
         style="fill:#ffffff;fill-opacity:0.8;fill-rule:evenodd;stroke:none;stroke-width:1pt;stroke-linecap:butt;stroke-linejoin:miter;stroke-opacity:1"
         sodipodi:nodetypes="ccc"
         id="path939"
         d="M 150.79014,774.83418 C 155.02955,787.17862 164.86615,777.53586 167.54053,775.37452 C 168.6212,766.61159 156.12495,779.7109 150.79014,774.83418 z" />
      <path
         style="fill:#ffffff;fill-opacity:0.8;fill-rule:evenodd;stroke:none;stroke-width:1pt;stroke-linecap:butt;stroke-linejoin:miter;stroke-opacity:1"
         sodipodi:nodetypes="cccc"
         id="path940"
         d="M 208.06565,785.64088 C 215.63034,795.08796 228.05804,787.70825 228.05804,784.01987 C 228.05804,779.97565 228.78716,779.15686 223.73536,779.15686 C 222.66208,789.42322 209.36656,784.99043 208.06565,785.64088 z" />
      <path
         style="fill:#ffffff;fill-opacity:0.8;fill-rule:evenodd;stroke:none;stroke-width:1pt;stroke-linecap:butt;stroke-linejoin:miter;stroke-opacity:1"
         sodipodi:nodetypes="ccc"
         id="path941"
         d="M 266.42183,786.18122 C 272.91545,789.96356 292.81914,785.10057 286.41422,782.93922 C 284.28603,781.85854 266.26235,783.52511 266.42183,786.18122 z" />
      <path
         style="fill:#ffffff;fill-opacity:0.8;fill-rule:evenodd;stroke:none;stroke-width:1pt;stroke-linecap:butt;stroke-linejoin:miter;stroke-opacity:1"
         sodipodi:nodetypes="ccc"
         id="path942"
         d="M 294.51924,778.0762 C 298.27627,781.34352 302.86785,766.18882 299.92261,766.18882 C 293.64522,767.06284 289.49772,777.07189 294.51924,778.0762 z" />
      <path
         style="fill:#ffffff;fill-opacity:0.8;fill-rule:evenodd;stroke:none;stroke-width:1pt;stroke-linecap:butt;stroke-linejoin:miter;stroke-opacity:1"
         sodipodi:nodetypes="ccc"
         id="path943"
         d="M 320.99566,766.72916 C 325.13823,766.00871 329.21821,756.4628 326.39901,756.4628 C 323.14102,756.4628 320.35461,765.12654 320.99566,766.72916 z" />
      <path
         style="fill:#ffffff;fill-opacity:0.8;fill-rule:evenodd;stroke:none;stroke-width:1pt;stroke-linecap:butt;stroke-linejoin:miter;stroke-opacity:1"
         sodipodi:nodetypes="ccccc"
         id="path944"
         d="M 344.7704,753.76112 C 350.12707,753.8078 347.29157,746.73677 349.63339,746.73677 C 349.63339,744.1801 350.71409,739.97953 350.71409,735.93007 C 348.31402,733.53 343.68972,738.3862 343.68972,740.79308 C 343.68972,744.47536 339.68427,753.74367 344.7704,753.76112 z" />
    </g>
  </g>
</svg>
