<?xml version="1.0" encoding="utf-8"?>
<!-- Generator: Adobe Illustrator 12.0.0, SVG Export Plug-In . SVG Version: 6.00 Build 51448)  -->
<!DOCTYPE svg PUBLIC "-//W3C//DTD SVG 1.1//EN" "http://www.w3.org/Graphics/SVG/1.1/DTD/svg11.dtd" [
	<!ENTITY ns_svg "http://www.w3.org/2000/svg">
	<!ENTITY ns_xlink "http://www.w3.org/1999/xlink">
]>
<svg  version="1.1" xmlns="&ns_svg;" xmlns:xlink="&ns_xlink;" width="527.203" height="295.5" viewBox="0 0 527.203 295.5"
	 overflow="visible" enable-background="new 0 0 527.203 295.5" xml:space="preserve">
<g id="Layer_1">
	
		<linearGradient id="Background_1_" gradientUnits="userSpaceOnUse" x1="12.0801" y1="150.3003" x2="525.6401" y2="150.3003" gradientTransform="matrix(1 0 0 -1 0 293.3887)">
		<stop  offset="0" style="stop-color:#FF7F00"/>
		<stop  offset="1" style="stop-color:#FFFF00"/>
	</linearGradient>
	
		<rect id="Background" x="12.08" y="1.563" fill="url(#Background_1_)" stroke="#333333" stroke-width="3.125" stroke-linecap="round" stroke-linejoin="round" width="513.56" height="283.052"/>
	
		<linearGradient id="Foreground_1_" gradientUnits="userSpaceOnUse" x1="1.563" y1="88.5957" x2="515.1226" y2="88.5957" gradientTransform="matrix(1 0 0 -1 0 293.3887)">
		<stop  offset="0" style="stop-color:#0F298F"/>
		<stop  offset="1" style="stop-color:#00A0C6"/>
	</linearGradient>
	
		<path id="Foreground" fill="url(#Foreground_1_)" stroke="#333333" stroke-width="3.125" stroke-linecap="round" stroke-linejoin="round" d="
		M1.563,293.937H513.96l1.162-104.115c0,0-172.881,73.605-321.187-18.768C95.396,109.678,25.963,110.79,1.563,120.826V293.937z"/>
</g>
<g id="Clock">
	
		<radialGradient id="ClockBackground_1_" cx="432.7231" cy="215.4175" r="41.991" fx="434.2172" fy="212.313" gradientTransform="matrix(1 0 0 -1 0 293.3887)" gradientUnits="userSpaceOnUse">
		<stop  offset="0" style="stop-color:#00A0C6"/>
		<stop  offset="0.1907" style="stop-color:#019EC5"/>
		<stop  offset="0.338" style="stop-color:#0298C2"/>
		<stop  offset="0.4709" style="stop-color:#028EBD"/>
		<stop  offset="0.5953" style="stop-color:#047FB7"/>
		<stop  offset="0.7138" style="stop-color:#076CAE"/>
		<stop  offset="0.8279" style="stop-color:#0A56A3"/>
		<stop  offset="0.9363" style="stop-color:#0D3B97"/>
		<stop  offset="1" style="stop-color:#0F298F"/>
	</radialGradient>
	
		<circle id="ClockBackground" fill="url(#ClockBackground_1_)" stroke="#B3B3B3" stroke-width="3.125" stroke-linecap="round" stroke-linejoin="round" cx="434.216" cy="74.866" r="45.354"/>
	<polygon id="ClockHand" fill="#FF0000" stroke="#000000" stroke-linecap="round" stroke-linejoin="round" points="433.263,76.452 
		436.052,76.342 436.765,40.322 441.003,39.319 434.214,26.365 427.429,39.205 431.451,40.257 	"/>
</g>
<g id="PauseButton">
	<path fill="#B3B3B3" stroke="#333333" stroke-width="3.125" stroke-linecap="round" stroke-linejoin="round" d="M131.886,214.744
		c-18.723,0-33.905,15.182-33.905,33.905s15.182,33.903,33.905,33.903c18.722,0,33.904-15.182,33.904-33.903
		C165.79,229.925,150.608,214.744,131.886,214.744z"/>
	<path fill="#0F2A90" stroke="#333333" stroke-width="3.125" stroke-linecap="round" stroke-linejoin="round" d="M117.85,225.615
		h8.372c0.347,0,0.625,0.278,0.625,0.625v44.983c0,0.349-0.278,0.627-0.625,0.627h-8.372c-0.347,0-0.625-0.278-0.625-0.627V226.24
		C117.225,225.894,117.502,225.615,117.85,225.615z"/>
	<path fill="#0F2A8F" stroke="#333333" stroke-width="3.125" stroke-linecap="round" stroke-linejoin="round" d="M137.718,225.615
		h8.374c0.345,0,0.623,0.278,0.623,0.625v44.983c0,0.349-0.278,0.627-0.623,0.627h-8.374c-0.347,0-0.625-0.278-0.625-0.627V226.24
		C137.093,225.894,137.371,225.615,137.718,225.615z"/>
</g>
<g id="StopButton">
	
		<circle fill="#B3B3B3" stroke="#333333" stroke-width="3.125" stroke-linecap="round" stroke-linejoin="round" cx="212.484" cy="248.648" r="33.904"/>
	<path fill="#0F2A8F" stroke="#333333" stroke-width="3.125" stroke-linecap="round" stroke-linejoin="round" d="M195.324,228.99
		h34.32c1.477,0,2.666,1.188,2.666,2.664v34.363c0,1.479-1.189,2.667-2.666,2.667h-34.32c-1.478,0-2.666-1.188-2.666-2.667v-34.363
		C192.658,230.177,193.846,228.99,195.324,228.99z"/>
</g>
<g id="PlayButton">
	<path fill="#B3B3B3" stroke="#333333" stroke-width="3.125" stroke-linecap="round" stroke-linejoin="round" d="M50.602,214.453
		c-18.8,0.108-33.974,15.479-33.864,34.28c0.111,18.798,15.481,33.931,34.281,33.819c18.799-0.109,33.932-15.438,33.822-34.237
		C84.729,229.516,69.401,214.341,50.602,214.453z"/>
	<polygon fill="#0F2A8F" stroke="#333333" stroke-width="3.125" stroke-linecap="round" stroke-linejoin="round" points="
		45.103,226.031 67.97,248.69 45.103,271.515 	"/>
</g>
</svg>
